<?xml version="1.0" encoding="UTF-8"?>
<svg height="100%" width="100%" viewBox="0 0 512 512" fill="none" xmlns="http://www.w3.org/2000/svg">
    <!-- Shield Base -->
    <path d="M256 32L64 96v160c0 123.5 92.7 220.8 192 240 99.3-19.2 192-116.5 192-240V96L256 32z" fill="#FFFFFF"/>
    <!-- Lock Body -->
<svg version="1.1" xmlns="http://www.w3.org/2000/svg" width="1080" height="1080">
<path d="M0 0 C356.4 0 712.8 0 1080 0 C1080 356.4 1080 712.8 1080 1080 C723.6 1080 367.2 1080 0 1080 C0 723.6 0 367.2 0 0 Z " fill="#5DB9D2" transform="translate(0,0)"/>
<path d="M0 0 C1.87491625 0.46680661 1.87491625 0.46680661 3.78770959 0.94304365 C7.23279976 1.80098296 10.67564282 2.66764426 14.1181643 3.53582442 C17.83998393 4.47278522 21.56385399 5.40153048 25.28747559 6.33129883 C31.73057942 7.94129004 38.17237538 9.55642667 44.61330032 11.17511177 C53.92568111 13.51542169 63.2400121 15.84788937 72.55483036 18.17847627 C87.66915622 21.96033688 102.78189647 25.74849408 117.89364624 29.54063416 C132.56924871 33.22331311 147.24559306 36.90301205 161.92294312 40.57872009 C162.82836254 40.80546903 163.73378196 41.03221797 164.66663833 41.26583809 C169.20907747 42.4034055 173.75153124 43.54091449 178.29399228 44.67839444 C215.95041317 54.10803793 253.6042641 63.54791009 291.25643921 72.99449158 C291.30224727 101.9799517 291.33755226 130.96540824 291.35856987 159.95089745 C291.36107073 163.38730388 291.36365943 166.82371025 291.36630249 170.26011658 C291.36708942 171.28613449 291.36708942 171.28613449 291.36789225 172.33288004 C291.37655103 183.350454 291.3922955 194.3680067 291.4107448 205.38556813 C291.42957083 216.72423776 291.44043319 228.06289181 291.4446162 239.40157807 C291.44720508 245.75615716 291.45321405 252.11068832 291.46789932 258.46525192 C291.48165793 264.46850495 291.48562568 270.47169112 291.48265457 276.47495842 C291.48319669 278.65711902 291.4870637 280.83928229 291.49485016 283.02142906 C291.59744425 313.30546745 288.94129088 343.66237604 282.79794312 373.33580017 C282.24148917 376.06789369 281.72129564 378.80520372 281.20565796 381.54527283 C278.18799396 397.21350449 273.87518144 412.41760401 269.26083374 427.67320251 C268.44424846 430.37345195 267.64073663 433.07674982 266.84628296 435.78355408 C249.12557072 495.3935737 216.81223695 550.71589181 177.94393921 598.86949158 C177.47157837 599.45674011 176.99921753 600.04398865 176.51254272 600.64903259 C174.77926612 602.78044461 173.02194514 604.88965791 171.25643921 606.99449158 C170.82843018 607.50614868 170.40042114 608.01780579 169.95944214 608.54496765 C161.67962747 618.3992524 152.90716231 627.65866038 143.78085327 636.7308197 C141.61929429 638.8815758 139.46875066 641.04293725 137.31893921 643.20542908 C130.62963924 649.9007697 123.94921009 656.38504624 116.48983765 662.22642517 C114.27610247 663.97892519 112.201286 665.82541075 110.13143921 667.74449158 C89.44918588 686.29227748 65.24799504 702.06863942 41.25643921 715.99449158 C40.28770874 716.55716736 40.28770874 716.55716736 39.29940796 717.13121033 C25.87669263 724.88832195 12.05030923 731.68568528 -1.93106079 738.36949158 C-2.82848999 738.79866882 -3.72591919 739.22784607 -4.65054321 739.67002869 C-5.4997937 740.07358582 -6.34904419 740.47714294 -7.22402954 740.89292908 C-7.97579468 741.25048279 -8.72755981 741.6080365 -9.50210571 741.97642517 C-15.57573521 744.73506094 -19.23473588 745.62653343 -25.78994751 743.25376892 C-28.11553679 742.28446792 -30.3982437 741.24814619 -32.68106079 740.18199158 C-33.5451355 739.7838324 -34.40921021 739.38567322 -35.29946899 738.97544861 C-38.12165044 737.6637765 -40.93363796 736.33220942 -43.74356079 734.99449158 C-44.6903772 734.54638123 -45.6371936 734.09827087 -46.61270142 733.63658142 C-83.42918124 716.09103381 -117.49109492 693.12723979 -148.74356079 666.99449158 C-149.33443481 666.50271423 -149.92530884 666.01093689 -150.53408813 665.5042572 C-163.35913127 654.79825853 -175.46707634 643.33781961 -187.30606079 631.55699158 C-187.94849731 630.91922791 -188.59093384 630.28146423 -189.25283813 629.62437439 C-193.61799169 625.24440052 -197.70619374 620.67605055 -201.74356079 615.99449158 C-202.76540362 614.83813253 -203.78879008 613.68313533 -204.81387329 612.52964783 C-212.29980403 604.04713056 -219.30993175 595.29021578 -226.07559204 586.22447205 C-227.76661129 583.96367435 -229.47319045 581.71523336 -231.18106079 579.46714783 C-278.37240345 516.9107213 -308.96325525 441.75799185 -322.49356079 364.80699158 C-322.6365863 364.01425842 -322.77961182 363.22152527 -322.92697144 362.4047699 C-329.02980701 328.23916392 -329.16494213 294.18068259 -329.04774261 259.58936763 C-329.0306591 253.67799838 -329.02785194 247.76663423 -329.02478699 241.85524363 C-329.01828415 230.17693586 -328.99849438 218.49869236 -328.96987915 206.82041931 C-328.94217614 195.50238864 -328.92102305 184.18437566 -328.90835571 172.86631775 C-328.90756754 172.16408268 -328.90677937 171.4618476 -328.90596732 170.73833268 C-328.9020511 167.21405477 -328.89826024 163.68977673 -328.89453161 160.16549861 C-328.86362867 131.10845461 -328.81073655 102.05147397 -328.74356079 72.99449158 C-314.05651805 68.79638301 -299.26605971 65.03531936 -284.45258904 61.31240916 C-281.67230263 60.613279 -278.89243768 59.91248084 -276.11256784 59.21169646 C-266.18869015 56.71000765 -256.26318037 54.21482618 -246.33731079 51.72105408 C-245.55295725 51.52397824 -244.76860371 51.32690241 -243.96048188 51.12385458 C-228.35177192 47.20209519 -212.74240522 43.28295457 -197.13170624 39.36911964 C-193.71715871 38.5129988 -190.30262023 37.65684187 -186.88809204 36.80064392 C-186.03959712 36.58788485 -185.1911022 36.37512579 -184.31689531 36.15591948 C-170.53554068 32.69987293 -156.75749285 29.23082165 -142.98069209 25.75667186 C-128.80149052 22.18130292 -114.61920131 18.61839975 -100.43387079 15.06742418 C-92.48280675 13.07670699 -84.53321735 11.0804715 -76.58711243 9.07004166 C-69.83127286 7.36077436 -63.07274244 5.66271338 -56.31043714 3.97919925 C-52.86394624 3.12080593 -49.41899939 2.25718004 -45.97748566 1.37902451 C-42.24224097 0.42607368 -38.50087093 -0.50111245 -34.75857544 -1.42601013 C-33.6793889 -1.70566065 -32.60020236 -1.98531117 -31.4883132 -2.27343595 C-20.23589535 -5.00562954 -11.05577232 -2.80581249 0 0 Z " fill="#C8C8C7" transform="translate(547.7435607910156,84.00550842285156)"/>
<path d="M0 0 C0.67864074 0.15397719 1.35728148 0.30795439 2.05648708 0.46659756 C4.44039878 1.01900294 6.81118756 1.61282339 9.18310547 2.21459961 C10.08278046 2.43980474 10.98245544 2.66500988 11.90939331 2.89703941 C14.89616139 3.64551616 17.88165269 4.39896418 20.8671875 5.15234375 C22.98901899 5.68492924 25.11093868 6.21716347 27.23294067 6.74906921 C31.75652321 7.88356344 36.27958706 9.020094 40.80224609 10.15826416 C51.50229242 12.85081293 62.205027 15.53264264 72.90766144 18.2148819 C75.3025244 18.81511281 77.69735561 19.41547041 80.09215546 20.01595306 C102.3492387 25.59664576 124.62062699 31.11741925 146.90618896 36.58322144 C150.75016343 37.52600532 154.59396172 38.46950217 158.4375 39.4140625 C159.07225376 39.5700271 159.70700752 39.72599171 160.36099625 39.88668251 C187.26257568 46.50203612 214.12657726 53.27137381 241 60 C241.07063821 82.7169326 241.12325278 105.43384664 241.15543652 128.15086746 C241.17078898 138.70299235 241.19165072 149.25504832 241.22631836 159.80712891 C241.25658243 169.02339156 241.27565893 178.23960423 241.28226548 187.45591521 C241.28611638 192.31855587 241.29491074 197.18105374 241.31719017 202.04364777 C241.39981632 220.88286107 241.24810038 239.62962144 239.73168945 258.41699219 C239.65047114 259.47369291 239.65047114 259.47369291 239.56761205 260.55174112 C238.6329397 272.33025971 236.34003301 283.29983493 234 295 C155.46 295 76.92 295 -4 295 C-4 399.28 -4 503.56 -4 611 C-7.69994721 610.26001056 -9.70002307 609.83983033 -12.8359375 608.20703125 C-13.55861816 607.83143066 -14.28129883 607.45583008 -15.02587891 607.06884766 C-15.80108887 606.65425293 -16.57629883 606.2396582 -17.375 605.8125 C-18.19790527 605.37470215 -19.02081055 604.9369043 -19.86865234 604.48583984 C-36.61727936 595.44714641 -52.72210905 585.34720684 -68 574 C-69.07072754 573.20529297 -69.07072754 573.20529297 -70.16308594 572.39453125 C-83.34800082 562.55696073 -95.85222137 552.09308777 -108 541 C-109.41732422 539.72189453 -109.41732422 539.72189453 -110.86328125 538.41796875 C-120.11367041 530.05123041 -129.23322055 521.47464319 -137.31640625 511.95703125 C-138.50467118 510.57577666 -139.72418193 509.22110851 -140.96484375 507.88671875 C-147.64451542 500.69973024 -153.53188771 492.97600878 -159.40527344 485.12988281 C-160.87059386 483.17283208 -162.3448744 481.2228614 -163.8203125 479.2734375 C-175.78812884 463.33729959 -186.36840607 446.43732545 -196 429 C-196.47791992 428.13600586 -196.95583984 427.27201172 -197.44824219 426.38183594 C-218.4043533 388.15799979 -233.21414559 346.90963506 -241.37255859 304.14453125 C-242.03236564 300.83779398 -242.77332584 297.55475399 -243.515625 294.265625 C-245.06593351 287.0861848 -246.03819956 279.90302579 -246.88037109 272.61376953 C-247.12492418 270.50065512 -247.38003259 268.38901522 -247.63671875 266.27734375 C-249.40256587 251.44226753 -250.14721978 236.81420598 -250.11352539 221.88720703 C-250.11324265 220.11176556 -250.11340294 218.33632397 -250.1139679 216.56088257 C-250.11425248 211.78499396 -250.10841086 207.00913094 -250.10139394 202.23324823 C-250.09510368 197.2258025 -250.09455214 192.21835606 -250.09336853 187.21090698 C-250.09027184 177.74822116 -250.08208104 168.28554702 -250.07201904 158.82286632 C-250.06080605 148.04161174 -250.05533443 137.26035657 -250.05032361 126.4790976 C-250.03989689 104.31939191 -250.0223299 82.15969669 -250 60 C-248.36752335 59.59222651 -248.36752335 59.59222651 -246.70206738 59.17621517 C-220.10443485 52.53238042 -193.50715006 45.88715503 -166.91022015 39.24050808 C-154.04764824 36.02614898 -141.18496767 32.81222629 -128.32202148 29.59936523 C-117.09829247 26.79594081 -105.87477716 23.99166262 -94.65150768 21.18639904 C-87.56829894 19.41598285 -80.48485325 17.64651912 -73.401218 15.8778103 C-68.96199371 14.76906967 -64.52306308 13.65915624 -60.08416617 12.54910576 C-56.9519445 11.76636164 -53.81929204 10.98535935 -50.68661022 10.20445919 C-42.15927953 8.07499335 -33.63969266 5.92964533 -25.15518188 3.63479614 C-23.88579427 3.29387719 -22.61640665 2.95295824 -21.30855274 2.60170841 C-19.09284596 2.00144069 -16.88008544 1.39010279 -14.67157269 0.76388454 C-9.35353094 -0.67949933 -5.4775236 -1.29685703 0 0 Z " fill="#5CB8D1" transform="translate(533,147)"/>
<path d="M0 0 C8.99986782 1.12498348 8.99986782 1.12498348 12.26719666 1.94822693 C13.01394024 2.13390008 13.76068382 2.31957323 14.530056 2.51087284 C15.71775274 2.81377814 15.71775274 2.81377814 16.92944336 3.12280273 C17.79026142 3.33825713 18.65107948 3.55371153 19.53798294 3.77569485 C22.3897305 4.49058727 25.23975531 5.21211791 28.08984375 5.93359375 C30.12035531 6.4438188 32.15098238 6.9535843 34.18171692 7.46292114 C38.51100182 8.54960486 42.83957657 9.63905654 47.16760254 10.73074341 C57.43245577 13.3196936 67.70089657 15.89435765 77.96897507 18.47047997 C81.42469569 19.33762549 84.88027721 20.20532377 88.33584595 21.07307434 C109.10141075 26.2858276 129.88448593 31.42587126 150.677948 36.52609253 C154.5511351 37.47617106 158.42413746 38.42699709 162.296875 39.37890625 C163.25823459 39.61516252 163.25823459 39.61516252 164.23901558 39.85619164 C191.18105272 46.48256026 218.08591599 53.26118508 245 60 C245.07063821 82.7169326 245.12325278 105.43384664 245.15543652 128.15086746 C245.17078898 138.70299235 245.19165072 149.25504832 245.22631836 159.80712891 C245.25658243 169.02339156 245.27565893 178.23960423 245.28226548 187.45591521 C245.28611638 192.31855587 245.29491074 197.18105374 245.31719017 202.04364777 C245.39981632 220.88286107 245.24810038 239.62962144 243.73168945 258.41699219 C243.65047114 259.47369291 243.65047114 259.47369291 243.56761205 260.55174112 C242.6329397 272.33025971 240.34003301 283.29983493 238 295 C159.46 295 80.92 295 0 295 C0 197.65 0 100.3 0 0 Z " fill="#0093B9" transform="translate(529,147)"/>
<path d="M0 0 C78.87 0 157.74 0 239 0 C239 104.28 239 208.56 239 316 C235.30005279 315.26001056 233.29997693 314.83983033 230.1640625 313.20703125 C229.44138184 312.83143066 228.71870117 312.45583008 227.97412109 312.06884766 C227.19891113 311.65425293 226.42370117 311.2396582 225.625 310.8125 C224.80209473 310.37470215 223.97918945 309.9369043 223.13134766 309.48583984 C206.38272064 300.44714641 190.27789095 290.34720684 175 279 C174.28618164 278.47019531 173.57236328 277.94039062 172.83691406 277.39453125 C159.65199918 267.55696073 147.14777863 257.09308777 135 246 C134.05511719 245.14792969 133.11023438 244.29585937 132.13671875 243.41796875 C122.88632959 235.05123041 113.76677945 226.47464319 105.68359375 216.95703125 C104.49532882 215.57577666 103.27581807 214.22110851 102.03515625 212.88671875 C95.35548458 205.69973024 89.46811229 197.97600878 83.59472656 190.12988281 C82.12940614 188.17283208 80.6551256 186.2228614 79.1796875 184.2734375 C67.21187116 168.33729959 56.63159393 151.43732545 47 134 C46.52208008 133.13600586 46.04416016 132.27201172 45.55175781 131.38183594 C23.09094293 90.41342805 7.67363229 46.04179372 0 0 Z " fill="#0093B9" transform="translate(290,442)"/>
<path d="M0 0 C1.29103126 3.670091 0.72048898 6.32983375 -0.1171875 10.08203125 C-0.38942139 11.30792969 -0.66165527 12.53382813 -0.94213867 13.796875 C-1.25179943 15.13571639 -1.56279123 16.4742505 -1.875 17.8125 C-2.03271881 18.49683105 -2.19043762 19.18116211 -2.35293579 19.88623047 C-16.04945924 79.08740865 -40.2484109 135.0595962 -76.53955078 184.02832031 C-77.84574078 185.79174231 -79.14148086 187.56219427 -80.43359375 189.3359375 C-85.48265438 196.19401985 -90.87159871 202.67751834 -96.42797852 209.12451172 C-97.5874272 210.50778316 -98.71944326 211.91415891 -99.83569336 213.33251953 C-105.93423884 221.0300436 -112.65807796 227.9321242 -119.62963867 234.83544922 C-121.5681756 236.75562183 -123.49848211 238.68378456 -125.42773438 240.61328125 C-131.44661333 246.61541865 -137.46612539 252.55313691 -144 258 C-144.93622192 258.79639893 -144.93622192 258.79639893 -145.89135742 259.60888672 C-172.07911796 281.80704127 -200.6292961 300.45329178 -230.75 316.875 C-231.36399658 317.2150708 -231.97799316 317.5551416 -232.6105957 317.90551758 C-234.0411028 318.66830281 -235.51732187 319.34436487 -237 320 C-237.66 319.67 -238.32 319.34 -239 319 C-238.67 214.72 -238.34 110.44 -238 3 C-159.46 3 -80.92 3 0 3 C0 2.01 0 1.02 0 0 Z " fill="#5DB8D1" transform="translate(767,439)"/>
<path d="M0 0 C0.32049316 0.78721436 0.64098633 1.57442871 0.97119141 2.38549805 C14.26031485 34.88908633 29.26221205 65.86149433 47.8125 95.75 C48.41054443 96.71397705 49.00858887 97.6779541 49.62475586 98.67114258 C53.81158541 105.32652083 58.33435416 111.67410484 63 118 C63.82996469 119.16481512 64.65626892 120.33226036 65.4765625 121.50390625 C78.53696721 140.09717332 92.91273316 157.47969856 108.3671875 174.12109375 C110.3728267 176.31420368 112.32341641 178.53005784 114.26171875 180.78125 C118.29362351 185.40482859 122.59012065 189.7371327 126.9375 194.0625 C127.69740234 194.82626953 128.45730469 195.59003906 129.24023438 196.37695312 C133.99742304 201.12601679 138.89785088 205.62626228 144 210 C145.19138248 211.04542 146.381515 212.09226643 147.5703125 213.140625 C155.29271819 219.90981975 163.15771076 226.42418597 171.29589844 232.68701172 C173.00681393 234.00525005 174.71099353 235.33180153 176.4140625 236.66015625 C182.81072161 241.63471672 189.30262837 246.43429744 196 251 C194.33383155 256.26213961 191.06931631 260.39159587 187.875 264.8125 C187.03001953 265.99489258 187.03001953 265.99489258 186.16796875 267.20117188 C184.78322342 269.13746831 183.39381373 271.07022641 182 273 C168.49357312 264.87325163 156.03714923 255.14996906 144 245 C143.46697266 244.55188965 142.93394531 244.1037793 142.38476562 243.64208984 C131.46269368 234.44176983 120.81607275 224.96816662 110.80859375 214.7734375 C109.02217495 213.0217439 107.16669452 211.41954449 105.25 209.8125 C99.9156125 205.21784202 95.29589408 199.93883967 90.57763672 194.73046875 C89.02424807 193.02659708 87.45519149 191.33894068 85.87890625 189.65625 C79.63144297 182.98086471 73.7230506 176.13523191 68 169 C66.97031869 167.74870749 65.938957 166.49879654 64.90625 165.25 C58.3687722 157.32362163 52.15320307 149.27245918 46.28759766 140.83789062 C44.91974696 138.88544845 43.5304678 136.94965539 42.13671875 135.015625 C17.03492608 100.07658787 -3.80467915 61.41629866 -20.25 21.6875 C-20.63309326 20.76831787 -21.01618652 19.84913574 -21.41088867 18.90209961 C-21.75482666 18.05139893 -22.09876465 17.20069824 -22.453125 16.32421875 C-22.75379883 15.58260498 -23.05447266 14.84099121 -23.36425781 14.0769043 C-24 12 -24 12 -24 8 C-20.56561785 6.65853506 -17.12701583 5.32824095 -13.6875 4 C-12.71103516 3.6184375 -11.73457031 3.236875 -10.72851562 2.84375 C-9.79072266 2.4828125 -8.85292969 2.121875 -7.88671875 1.75 C-7.02264404 1.41484375 -6.15856934 1.0796875 -5.26831055 0.734375 C-3 0 -3 0 0 0 Z " fill="#C7C8C7" transform="translate(216,558)"/>
<path d="M0 0 C8.25 0 16.5 0 25 0 C25.09353854 21.92683391 25.16445192 43.85361798 25.20724869 65.78061295 C25.22766891 75.96709332 25.25538344 86.15344571 25.30175781 96.33984375 C25.34226856 105.24268758 25.36758082 114.14543856 25.37635398 123.04837203 C25.38146311 127.74029438 25.39301066 132.43195171 25.42292023 137.12378693 C25.54665613 157.36334715 25.00738463 177.37442539 23.14746094 197.53808594 C23.064236 198.44390679 22.98101106 199.34972764 22.89526415 200.28299761 C21.38888529 216.32724901 19.04499741 232.17353199 16 248 C13.62341176 247.69218603 11.24718307 247.38193533 8.87109375 247.0703125 C8.20541382 246.98434814 7.53973389 246.89838379 6.85388184 246.80981445 C1.51390568 246.10654041 -3.74267351 245.16279692 -9 244 C-10.18455095 240.48954476 -9.81452972 237.9538779 -9.109375 234.34765625 C-8.89571289 233.19644287 -8.68205078 232.04522949 -8.46191406 230.85913086 C-8.22698242 229.60624268 -7.99205078 228.35335449 -7.75 227.0625 C-4.65567806 209.91279101 -3.33683238 192.6852614 -2.16965771 175.31388283 C-2.04691567 173.63986114 -1.90767032 171.96702217 -1.75823689 170.29517174 C-0.99479459 161.47211158 -0.8293092 152.68568578 -0.79467773 143.83666992 C-0.78507345 142.25841531 -0.77506199 140.68016313 -0.76467896 139.10191345 C-0.73789964 134.85903269 -0.71674599 130.61614111 -0.69667697 126.37322402 C-0.6746488 121.92362665 -0.64734331 117.47406157 -0.62062073 113.02449036 C-0.57091942 104.61719042 -0.52589793 96.20987234 -0.48259836 87.80253726 C-0.43303181 78.22319476 -0.37818637 68.64388469 -0.32291877 59.06457365 C-0.20944558 39.37641255 -0.10271975 19.68821989 0 0 Z " fill="#C8C8C7" transform="translate(878,222)"/>
<path d="M0 0 C4.43725085 3.68197411 7.72037153 7.44471639 8.36076355 13.29670715 C8.35410172 14.54691147 8.34743988 15.79711578 8.34057617 17.08520508 C8.34123329 18.12505554 8.34123329 18.12505554 8.34190369 19.18591309 C8.3398233 21.46407811 8.31652893 23.74149571 8.29296875 26.01953125 C8.2873701 27.60421853 8.28310127 29.18891101 8.28010559 30.77360535 C8.26867794 34.93462584 8.23922892 39.09532975 8.20599365 43.25622559 C8.17524775 47.50605996 8.16159062 51.75594572 8.14648438 56.00585938 C8.11435693 64.33740071 8.06160624 72.66862444 8 81 C1.4 81 -5.2 81 -12 81 C-12.33 79.02 -12.66 77.04 -13 75 C-13.763125 75.969375 -14.52625 76.93875 -15.3125 77.9375 C-17.26748815 80.42086332 -17.85650159 80.9521672 -21 82 C-25.63522786 82.53856933 -29.07906346 82.45178019 -33.3125 80.375 C-38.88279145 75.45241686 -40.68103857 71.06455279 -41.14038086 63.77099609 C-41.24222987 61.22146903 -41.28406737 58.67635428 -41.3125 56.125 C-41.34150391 55.26519531 -41.37050781 54.40539062 -41.40039062 53.51953125 C-41.47645299 45.8079775 -39.68901878 40.74272244 -34.26171875 35.20703125 C-30.55790259 32.70085625 -27.01127697 31.15416956 -22.8125 29.6875 C-22.10158203 29.42388672 -21.39066406 29.16027344 -20.65820312 28.88867188 C-17.65140756 27.79966313 -15.2209202 27 -12 27 C-12.14076315 25.0412957 -12.2877676 23.08303907 -12.4375 21.125 C-12.51871094 20.03445313 -12.59992188 18.94390625 -12.68359375 17.8203125 C-12.83001703 15.05271029 -12.83001703 15.05271029 -14 13 C-15.65 13 -17.3 13 -19 13 C-19.33 15.97 -19.66 18.94 -20 22 C-26.6 22 -33.2 22 -40 22 C-40.41130233 13.77395338 -40.25723493 7.80932591 -34.64453125 1.46875 C-25.50690445 -6.95844469 -10.21231735 -5.87924064 0 0 Z " fill="#FCFEFE" transform="translate(506,914)"/>
<path d="M0 0 C3.71604201 2.80285407 5.54134658 5.65054983 7.29296875 9.8984375 C7.6537323 13.31539917 7.6537323 13.31539917 7.63354492 17.09716797 C7.63420204 18.13723747 7.63420204 18.13723747 7.63487244 19.19831848 C7.63279638 21.47104887 7.60952278 23.74302483 7.5859375 26.015625 C7.5803373 27.59888303 7.57606921 29.18214628 7.57307434 30.76541138 C7.56165885 34.91819795 7.53222045 39.07066621 7.4989624 43.22332764 C7.46819013 47.46654963 7.45455376 51.70982341 7.43945312 55.953125 C7.40734717 64.26839101 7.35460657 72.5833379 7.29296875 80.8984375 C0.69296875 80.8984375 -5.90703125 80.8984375 -12.70703125 80.8984375 C-13.03703125 79.2484375 -13.36703125 77.5984375 -13.70703125 75.8984375 C-14.47015625 76.7028125 -15.23328125 77.5071875 -16.01953125 78.3359375 C-19.94560873 82.07940673 -23.23597226 82.25612515 -28.42578125 82.171875 C-32.07799954 81.73410911 -34.01116671 80.34352394 -36.70703125 77.8984375 C-43.18324847 69.32575252 -42.7223481 57.18445123 -41.70703125 46.8984375 C-40.21443544 40.68436514 -37.47156801 37.00617007 -32.14453125 33.5234375 C-26.48317441 30.52674937 -19.22170994 26.8984375 -12.70703125 26.8984375 C-13.20203125 20.4634375 -13.20203125 20.4634375 -13.70703125 13.8984375 C-15.68703125 13.2384375 -17.66703125 12.5784375 -19.70703125 11.8984375 C-20.03703125 15.1984375 -20.36703125 18.4984375 -20.70703125 21.8984375 C-27.30703125 21.8984375 -33.90703125 21.8984375 -40.70703125 21.8984375 C-40.70703125 7.12065972 -40.70703125 7.12065972 -34.45703125 0.5234375 C-23.91192122 -5.70776388 -10.61231636 -6.84822246 0 0 Z " fill="#FCFDFE" transform="translate(751.70703125,914.1015625)"/>
<path d="M0 0 C34 0 34 0 42 5 C43.83984375 7.53515625 43.83984375 7.53515625 44.9375 10.0625 C45.31777344 10.89910156 45.69804688 11.73570312 46.08984375 12.59765625 C48.18819865 18.13623249 48.21720357 23.25443957 48.25 29.125 C48.270625 30.02476562 48.29125 30.92453125 48.3125 31.8515625 C48.36441481 40.8847397 46.77076578 48.65927573 40.79296875 55.625 C34.46951737 60.47435705 27.75255924 59 20 59 C20 71.87 20 84.74 20 98 C13.4 98 6.8 98 0 98 C0 65.66 0 33.32 0 0 Z " fill="#FBFDFE" transform="translate(658,897)"/>
<path d="M0 0 C35.7 0 35.7 0 42.6875 6.5 C49.31449978 15.11509971 49.13099682 28.6179006 48 39 C46.6780529 45.20976178 44.88371305 51.67442558 40 56 C32.89814577 60.47725593 28.33679089 59 19 59 C19 71.87 19 84.74 19 98 C12.73 98 6.46 98 0 98 C0 65.66 0 33.32 0 0 Z " fill="#FEFEFE" transform="translate(293,897)"/>
<path d="M0 0 C6.27 0 12.54 0 19 0 C20.77736514 13.36578588 22.34077454 26.70672425 23.35302734 40.15429688 C23.42473145 41.09595703 23.49643555 42.03761719 23.5703125 43.0078125 C23.62977051 43.82910645 23.68922852 44.65040039 23.75048828 45.49658203 C24.03462159 48.34736771 24.52901166 51.17406994 25 54 C26.98 36.18 28.96 18.36 31 0 C37.27 0 43.54 0 50 0 C49.35391425 11.21754681 47.33398331 22.08755836 45.3125 33.125 C44.58305652 37.13903714 43.85604979 41.15351445 43.12890625 45.16796875 C42.94725922 46.1671785 42.76561218 47.16638824 42.57846069 48.19587708 C41.42648208 54.55617594 40.33033333 60.92340756 39.27734375 67.30078125 C38.88956005 69.61767737 38.50091845 71.93442827 38.1121521 74.25115967 C37.87295608 75.69520458 37.63866681 77.14007184 37.40957642 78.58575439 C37.09326579 80.57879485 36.75800074 82.56879925 36.421875 84.55859375 C36.24237305 85.66517334 36.06287109 86.77175293 35.87792969 87.91186523 C34.84845667 91.53305662 33.28027547 94.02115093 31 97 C28.18175808 98.40912096 25.82748718 98.11183553 22.6796875 98.09765625 C21.42285156 98.09443359 20.16601562 98.09121094 18.87109375 98.08789062 C17.55238281 98.07951172 16.23367188 98.07113281 14.875 98.0625 C13.53515789 98.05748489 12.195314 98.05292201 10.85546875 98.04882812 C7.57029343 98.03701095 4.28514119 98.01907501 1 98 C1 93.71 1 89.42 1 85 C4.96 85 8.92 85 13 85 C12.81824219 84.06542969 12.63648438 83.13085938 12.44921875 82.16796875 C9.58127473 67.25196152 7.29726585 52.26593417 5.2019043 37.22387695 C4.05117673 29.09061566 2.68872058 20.99599451 1.26977539 12.90551758 C1.10469482 11.94669678 0.93961426 10.98787598 0.76953125 10 C0.62104736 9.154375 0.47256348 8.30875 0.31958008 7.4375 C0 5 0 5 0 0 Z " fill="#FCFDFE" transform="translate(575,911)"/>
<path d="M0 0 C4.03432032 3.66555247 7.80296857 7.38182493 8.11352539 13.0847168 C8.10828857 13.86500244 8.10305176 14.64528809 8.09765625 15.44921875 C8.09515869 16.21322998 8.09266113 16.97724121 8.09008789 17.7644043 C8.08098389 18.72902588 8.07187988 19.69364746 8.0625 20.6875 C8.041875 23.760625 8.02125 26.83375 8 30 C1.4 30 -5.2 30 -12 30 C-12.4375 22.0625 -12.4375 22.0625 -12.56811523 19.55883789 C-12.46204823 15.97955708 -12.46204823 15.97955708 -14 13 C-16.5 12.83333333 -16.5 12.83333333 -19 13 C-20.62754644 14.62754644 -20.12737077 16.44138323 -20.12939453 18.6875 C-20.13254669 19.68523438 -20.13569885 20.68296875 -20.13894653 21.7109375 C-20.1369223 22.79632812 -20.13489807 23.88171875 -20.1328125 25 C-20.13376923 26.10601563 -20.13472595 27.21203125 -20.13571167 28.3515625 C-20.13639367 30.69531308 -20.13453804 33.03906553 -20.13037109 35.3828125 C-20.12502314 38.98441788 -20.13031547 42.58589853 -20.13671875 46.1875 C-20.13605797 48.45833361 -20.13477682 50.72916714 -20.1328125 53 C-20.13483673 54.08539062 -20.13686096 55.17078125 -20.13894653 56.2890625 C-20.13579437 57.28679688 -20.13264221 58.28453125 -20.12939453 59.3125 C-20.12859894 60.19550781 -20.12780334 61.07851563 -20.12698364 61.98828125 C-20.22270674 63.99767892 -20.22270674 63.99767892 -19 65 C-17.33382885 65.04063832 -15.66611905 65.042721 -14 65 C-12.88176185 62.76352369 -12.80603939 61.35108471 -12.68359375 58.8671875 C-12.64548584 58.14128418 -12.60737793 57.41538086 -12.56811523 56.66748047 C-12.50346069 55.28520264 -12.50346069 55.28520264 -12.4375 53.875 C-12.293125 50.94625 -12.14875 48.0175 -12 45 C-5.4 45 1.2 45 8 45 C8.13582711 48.50132114 8.2345137 51.99730117 8.3125 55.5 C8.35439453 56.48226562 8.39628906 57.46453125 8.43945312 58.4765625 C8.55381779 65.33844248 7.42259109 69.68876514 3 75 C-2.75182593 80.75182593 -9.06134934 82.19137029 -16.9375 82.4375 C-24.87379097 82.23378772 -30.76772324 80.66006846 -36.375 74.875 C-41.63446032 67.84049785 -42.45886679 59.50260829 -42.3984375 50.96875 C-42.40130768 50.05218628 -42.40417786 49.13562256 -42.40713501 48.19128418 C-42.40916105 46.26862972 -42.40373438 44.34595395 -42.39111328 42.42333984 C-42.37503864 39.50701102 -42.39101214 36.59206778 -42.41015625 33.67578125 C-42.40817356 31.79426782 -42.40432935 29.91275525 -42.3984375 28.03125 C-42.40451019 27.17366089 -42.41058289 26.31607178 -42.4168396 25.43249512 C-42.32079928 17.02472214 -40.60313315 8.51174934 -35 2 C-24.88863724 -5.6721268 -11.02056327 -6.96746645 0 0 Z " fill="#FBFDFE" transform="translate(563,914)"/>
<path d="M0 0 C6.6 0 13.2 0 20 0 C22.00900674 15.97830025 23.72672745 31.94579328 25 48 C25.08040527 47.04335449 25.16081055 46.08670898 25.24365234 45.10107422 C25.54898947 41.48125466 25.8597037 37.86191182 26.171875 34.24267578 C26.30513091 32.68941153 26.43701378 31.13602875 26.56738281 29.58251953 C27.40154922 19.65593928 28.49540252 9.85184264 30 0 C36.6 0 43.2 0 50 0 C49.48903316 7.25572914 48.47042193 14.26828273 47.15258789 21.40844727 C46.30802229 26.05431891 45.64894914 30.67941771 45.125 35.375 C44.10841434 44.0159781 42.48857778 52.52707932 40.85205078 61.06982422 C39.39657323 68.69284583 38.14274433 76.32350915 37 84 C29.08 84 21.16 84 13 84 C12.22115565 79.20491495 11.44245678 74.40980684 10.66421509 69.61462402 C10.38820248 67.91401379 10.11214051 66.21341157 9.83602905 64.51281738 C7.98268103 53.09616086 6.14707779 41.67692511 4.33789062 30.25317383 C3.16917507 22.924457 1.88151625 15.62256552 0.515625 8.328125 C0 5 0 5 0 0 Z " fill="#FCFDFE" transform="translate(411,911)"/>
<path d="M0 0 C0 5.61 0 11.22 0 17 C-2.79947917 17.48828125 -5.59895833 17.9765625 -8.3984375 18.46484375 C-10.96909656 18.87712062 -10.96909656 18.87712062 -13 20 C-13.33 41.45 -13.66 62.9 -14 85 C-20.93 85 -27.86 85 -35 85 C-35 57.28 -35 29.56 -35 1 C-28.07 1 -21.14 1 -14 1 C-13.67 2.65 -13.34 4.3 -13 6 C-12.05125 5.195625 -11.1025 4.39125 -10.125 3.5625 C-6.38981828 0.39571549 -5.3025431 0 0 0 Z " fill="#F8FCFD" transform="translate(381,910)"/>
<path d="M0 0 C6.6 0 13.2 0 20 0 C20 32.67 20 65.34 20 99 C13.4 99 6.8 99 0 99 C0 66.33 0 33.66 0 0 Z " fill="#FEFEFE" transform="translate(767,896)"/>
<path d="M0 0 C6.6 0 13.2 0 20 0 C20 27.72 20 55.44 20 84 C13.4 84 6.8 84 0 84 C0 56.28 0 28.56 0 0 Z " fill="#FEFEFE" transform="translate(386,911)"/>
<path d="M0 0 C8.25 0 16.5 0 25 0 C25 8.58 25 17.16 25 26 C16.75 26 8.5 26 0 26 C0 17.42 0 8.84 0 0 Z " fill="#C7C8C7" transform="translate(878,170)"/>
<path d="M0 0 C1.0094696 3.08031416 2.00589621 6.1646959 3 9.25 C3.28617188 10.12269531 3.57234375 10.99539063 3.8671875 11.89453125 C4.13789063 12.73886719 4.40859375 13.58320312 4.6875 14.453125 C4.93886719 15.22817383 5.19023437 16.00322266 5.44921875 16.80175781 C6 19 6 19 6 23 C2.40047958 24.20191984 -1.20524257 25.38402448 -4.8125 26.5625 C-6.34874023 27.07586914 -6.34874023 27.07586914 -7.91601562 27.59960938 C-8.89892578 27.91865234 -9.88183594 28.23769531 -10.89453125 28.56640625 C-11.80050049 28.86490479 -12.70646973 29.16340332 -13.63989258 29.47094727 C-16 30 -16 30 -19 29 C-19.90722656 27.20581055 -19.90722656 27.20581055 -20.640625 24.88671875 C-20.90617188 24.05076172 -21.17171875 23.21480469 -21.4453125 22.35351562 C-21.84363281 21.03383789 -21.84363281 21.03383789 -22.25 19.6875 C-22.53101563 18.81931641 -22.81203125 17.95113281 -23.1015625 17.05664062 C-25.51175791 9.28316386 -25.51175791 9.28316386 -24 6 C-22.11401367 4.99511719 -22.11401367 4.99511719 -19.66796875 4.296875 C-18.34635742 3.91015625 -18.34635742 3.91015625 -16.99804688 3.515625 C-16.07056641 3.26296875 -15.14308594 3.0103125 -14.1875 2.75 C-13.27162109 2.481875 -12.35574219 2.21375 -11.41210938 1.9375 C-7.39782261 0.79139628 -4.2143124 0 0 0 Z " fill="#C6C8C7" transform="translate(202,516)"/>
<path d="M0 0 C6.6 0 13.2 0 20 0 C20 4.62 20 9.24 20 14 C13.4 14 6.8 14 0 14 C0 9.38 0 4.76 0 0 Z " fill="#FAFDFD" transform="translate(386,892)"/>
<path d="M0 0 C0.05794812 4.27077656 0.09357874 8.54145236 0.125 12.8125 C0.14175781 14.02744141 0.15851563 15.24238281 0.17578125 16.49414062 C0.18222656 17.65751953 0.18867188 18.82089844 0.1953125 20.01953125 C0.20578613 21.09307861 0.21625977 22.16662598 0.22705078 23.27270508 C0 26 0 26 -2 29 C-4.5 29.375 -4.5 29.375 -7 29 C-9.75132454 24.87301319 -9.4045454 21.53914875 -9.4375 16.6875 C-9.47037109 15.84509766 -9.50324219 15.00269531 -9.53710938 14.13476562 C-9.57442324 9.79618126 -9.3933028 6.89790604 -6.59765625 3.45703125 C-2.9427663 0 -2.9427663 0 0 0 Z " fill="#65BCD4" transform="translate(494,951)"/>
<path d="M0 0 C0.05794812 4.27077656 0.09357874 8.54145236 0.125 12.8125 C0.14175781 14.02744141 0.15851562 15.24238281 0.17578125 16.49414062 C0.18222656 17.65751953 0.18867187 18.82089844 0.1953125 20.01953125 C0.20578613 21.09307861 0.21625977 22.16662598 0.22705078 23.27270508 C0 26 0 26 -2 29 C-6.875 28.125 -6.875 28.125 -8 27 C-8.36316993 23.42691762 -8.3716252 19.83904092 -8.4375 16.25 C-8.48326172 15.24710938 -8.52902344 14.24421875 -8.57617188 13.2109375 C-8.68671413 5.96321033 -8.68671413 5.96321033 -6.70361328 3.18164062 C-4.57597474 1.34704564 -2.88236783 0 0 0 Z " fill="#5EB9D2" transform="translate(739,951)"/>
<path d="M0 0 C6 1 6 1 7.8515625 3.15625 C9.1855767 6.45952326 9.39993202 8.94303142 9.375 12.5 C9.38273437 13.6034375 9.39046875 14.706875 9.3984375 15.84375 C8.94892153 19.40462163 8.38413369 21.3040176 6 24 C4.02 24 2.04 24 0 24 C0 16.08 0 8.16 0 0 Z " fill="#65BCD4" transform="translate(312,914)"/>
<path d="M0 0 C2.31 0.33 4.62 0.66 7 1 C8.56474126 4.12948252 8.22569951 7.44255602 8.25 10.875 C8.270625 11.59558594 8.29125 12.31617188 8.3125 13.05859375 C8.33580771 16.22261532 8.17461186 18.63603631 6.796875 21.5078125 C5 23 5 23 0 23 C0 15.41 0 7.82 0 0 Z " fill="#5EB9D2" transform="translate(678,915)"/>
</svg>
